<svg xmlns="http://www.w3.org/2000/svg" xmlns:xlink="http://www.w3.org/1999/xlink" width="158.599" height="50.096" viewBox="0 0 158.599 50.096">
  <defs>
    <linearGradient id="linear-gradient" y1="0.5" x2="1" y2="0.5" gradientUnits="objectBoundingBox">
      <stop offset="0" stop-color="#96d3df"/>
      <stop offset="0.046" stop-color="#87c8d1"/>
      <stop offset="0.115" stop-color="#77bdc3"/>
      <stop offset="0.169" stop-color="#72babe"/>
      <stop offset="0.314" stop-color="#6eb7bb"/>
      <stop offset="0.453" stop-color="#62aeb5"/>
      <stop offset="0.521" stop-color="#5aa8b1"/>
      <stop offset="0.772" stop-color="#4999a5"/>
      <stop offset="1" stop-color="#40919f"/>
    </linearGradient>
  </defs>
  <g id="Group_12849" data-name="Group 12849" transform="translate(-111.846 -131.87)">
    <g id="Group_2" data-name="Group 2" transform="translate(111.846 131.87)">
      <path id="Path_1" data-name="Path 1" d="M159.118,154.638c0,5.887-.895,11.331-5.43,15.575a92.712,92.712,0,0,1-7.328,5.751,23.187,23.187,0,0,1-12.29,3.722c-9.1,0-15.537-6.037-21.454-12.114-3.594-3.691-3.594-8.2-3.594-12.934,0-6.707,1.491-13.419,6.93-17.3,5.378-3.834,10.992-7.753,18.118-7.753,8.573,0,16.1,2.982,20.655,10.874C157.169,144.7,159.118,149.377,159.118,154.638Z" transform="translate(-109.022 -129.59)" fill="#daefee"/>
      <path id="Path_2" data-name="Path 2" d="M171.681,176.385c-5.206-.911-14.379-4.7-16.383-11.409-.094-.8-.154-1.624-.176-2.481a27.355,27.355,0,0,0-5.347-16.066c-3.534-4.629-7.767-6.846-12.512-6.846a16.66,16.66,0,0,0-3.053.291,14.676,14.676,0,0,0-8.651,5.143c-2.031,2.04-3.254,4.888-4.507,7.6a26.479,26.479,0,0,0-2.494,11.412c0,.494.093,2.014.109,4.123a20.968,20.968,0,0,0-6.562,2.078,11.574,11.574,0,0,0,2.953,5.261c.884.908,1.779,1.814,2.693,2.7.112-.251.228-.49.349-.711q-.066.464-.143.911c5.154,4.961,10.915,9.214,18.555,9.214a23.187,23.187,0,0,0,12.29-3.722c.543-.333,3.679-3.251,7.131-2.142,3,.84,8.241.682,17.176-3.324C173.472,178.249,174.285,176.841,171.681,176.385Z" transform="translate(-111.461 -137.504)" fill="url(#linear-gradient)"/>
      <path id="Path_3" data-name="Path 3" d="M282.84,201.543v0Z" transform="translate(-246.682 -186.575)" fill="#5eacb2"/>
      <path id="Path_4" data-name="Path 4" d="M178.873,191.026c.967-1.451,2.778-1.76,4.42-1.63,1.8.143,3.3,1.36,5.042,1.627a6.76,6.76,0,0,0,4.128-.926c1.256-.57,3.842-.793,5.136.04,3.8,2.447,3.734,9.3.3,11.9-2.487,1.879-4.8,3.295-7.932,3.443a16.484,16.484,0,0,1-7.73-1.058c-4.57-2.043-6.2-9.291-3.36-13.4" transform="translate(-163.228 -176.934)" fill="#fff"/>
      <path id="Path_5" data-name="Path 5" d="M198.8,214.473c.037,1.135-.572,2.174-1.276,2.175-.666,0-1.286-.952-1.322-2.033-.039-1.19.532-2.147,1.278-2.144.722,0,1.282.852,1.319,2m-1.011.1a.5.5,0,1,0-1,.095c.005.391.245.593.576.547.283-.04.428-.274.42-.642" transform="translate(-178.063 -195.229)" fill="#4c484a" fill-rule="evenodd"/>
      <path id="Path_6" data-name="Path 6" d="M253.652,218.849c-.095-.155-.218-.419-.515-.39a.5.5,0,0,0-.459.566c.017.372.22.62.568.56.281-.048.42-.287.407-.735" transform="translate(-222.794 -199.97)" fill="#fff" fill-rule="evenodd"/>
      <path id="Path_7" data-name="Path 7" d="M224.828,234.044c-.116-.569,0-.882.467-.8.539.1,1.475-.175,1.476.554a1.919,1.919,0,0,1-1.365,1.623c-.708.086-.32-1-.577-1.38" transform="translate(-200.705 -211.673)" fill="#f0a919" fill-rule="evenodd"/>
      <path id="Path_8" data-name="Path 8" d="M183.4,206.213a10.883,10.883,0,0,1-5.054-7.459,11.388,11.388,0,0,1,1.048-7.1,3.38,3.38,0,0,0-1.378,1.181c-2.841,4.109-1.21,11.357,3.36,13.4a12.651,12.651,0,0,0,3.99,1.01,12.534,12.534,0,0,1-1.965-1.033" transform="translate(-162.551 -178.744)" fill="#dfdedf" opacity="0.6"/>
      <path id="Path_9" data-name="Path 9" d="M227.345,233.777a.976.976,0,0,1,.023.248,1.76,1.76,0,0,1-.839,1.467,1.443,1.443,0,0,1-.653.164.333.333,0,0,0,.392.2,1.919,1.919,0,0,0,1.365-1.623.437.437,0,0,0-.289-.454" transform="translate(-201.569 -212.104)" fill="#d6910f" fill-rule="evenodd"/>
      <path id="Path_10" data-name="Path 10" d="M230.589,235.722a1.245,1.245,0,0,0,.391-1.1.153.153,0,0,0-.295.081.946.946,0,0,1-.313.807.153.153,0,0,0,.216.216" transform="translate(-205.094 -212.683)" fill="#fac362"/>
      <path id="Path_11" data-name="Path 11" d="M201.123,213.446a4.123,4.123,0,0,1,.478,1.688,3.033,3.033,0,0,0,.052-.661c-.038-1.151-.6-2-1.319-2a.909.909,0,0,0-.53.175,1.575,1.575,0,0,1,1.32.8" transform="translate(-180.918 -195.229)" fill="#696a6a" fill-rule="evenodd" opacity="0.78"/>
      <g id="Group_1" data-name="Group 1" transform="translate(29.249 16.896)">
        <path id="Path_12" data-name="Path 12" d="M252.228,212.815c.037,1.135-.572,2.174-1.276,2.174-.666,0-1.286-.952-1.322-2.033-.039-1.19.532-2.147,1.279-2.144.722,0,1.282.852,1.319,2m-1.011.1a.5.5,0,1,0-1,.095c.005.391.245.593.576.547.282-.04.428-.274.42-.642" transform="translate(-249.628 -210.812)" fill="#4c484a" fill-rule="evenodd"/>
        <path id="Path_13" data-name="Path 13" d="M254.554,211.788a4.119,4.119,0,0,1,.478,1.688,3.059,3.059,0,0,0,.052-.661c-.038-1.151-.6-2-1.319-2a.907.907,0,0,0-.53.175,1.575,1.575,0,0,1,1.32.8" transform="translate(-252.484 -210.812)" fill="#696a6a" fill-rule="evenodd" opacity="0.78"/>
      </g>
      <path id="Path_14" data-name="Path 14" d="M249.172,226.1s-.362-.725,1.087-1.812a6.051,6.051,0,0,1,3.261-1.087" transform="translate(-219.986 -203.729)" fill="#fff" fill-rule="evenodd"/>
      <path id="Path_15" data-name="Path 15" d="M192.51,227.843s.362-.725-1.087-1.812a6.051,6.051,0,0,0-3.261-1.087" transform="translate(-171.698 -205.108)" fill="#fff" fill-rule="evenodd"/>
      <path id="Path_16" data-name="Path 16" d="M182.236,287.116c-4.375,1.063-10.6,1.733-13.027,7.226a19.949,19.949,0,0,0-1.06,5.463,21.881,21.881,0,0,0,12.748,4.336,23.187,23.187,0,0,0,12.29-3.722,12.8,12.8,0,0,1,3.628-2.08c-.066-.44-.145-.876-.237-1.306C194.8,288.7,188.6,285.568,182.236,287.116Z" transform="translate(-155.849 -254.045)" fill="#67c2c9" opacity="0.5"/>
      <path id="Path_17" data-name="Path 17" d="M181.047,307.21a23.187,23.187,0,0,0,12.29-3.722,14.2,14.2,0,0,1,3.081-1.883q-.081-.484-.183-.959c-1.751-8.124-7.837-11.173-14.1-9.665-4.3,1.036-10.418,1.689-12.8,7.042a18.071,18.071,0,0,0-1,4.878A21.857,21.857,0,0,0,181.047,307.21Z" transform="translate(-155.999 -257.113)" fill="#fff"/>
      <path id="Path_18" data-name="Path 18" d="M169.338,315.149a18.071,18.071,0,0,0-1,4.878q.785.545,1.6,1.038c.072-.923.191-1.847.343-2.76.255-1.521.59-3.026.869-4.543.076-.413.153-.825.217-1.24.016-.1.028-.179.038-.243l0-.045A8.9,8.9,0,0,0,169.338,315.149Z" transform="translate(-155.999 -274.24)" fill="#dfdedf" fill-rule="evenodd" opacity="0.6"/>
    </g>
    <g id="Group_3" data-name="Group 3" transform="translate(182.092 149.015)">
      <path id="Path_19" data-name="Path 19" d="M452.2,172.867a1.113,1.113,0,0,1,.328.85q0,.039-.116.5l-5.947,17.764a1.627,1.627,0,0,1-.5.56.946.946,0,0,1-.656.174,1.033,1.033,0,0,1-.618-.193,1.285,1.285,0,0,1-.425-.541l-5.059-11.894-4.518,11.894a1.432,1.432,0,0,1-.444.521,1,1,0,0,1-.6.212,1.082,1.082,0,0,1-.715-.174,1.049,1.049,0,0,1-.444-.56l-6.1-17.764a1.158,1.158,0,0,1,.232-1.332,1.193,1.193,0,0,1,.85-.328,1.057,1.057,0,0,1,.637.212,1.116,1.116,0,0,1,.406.56l5.136,15.408,4.6-11.546a1.051,1.051,0,0,1,1.081-.734,1.094,1.094,0,0,1,1.081.734l4.827,11.469,5.059-15.331a1.017,1.017,0,0,1,1.081-.772A1.165,1.165,0,0,1,452.2,172.867Z" transform="translate(-426.271 -172.519)" fill="#018aa2" stroke="#018aa2" stroke-width="1"/>
      <path id="Path_20" data-name="Path 20" d="M612.595,173.316a1.128,1.128,0,0,1,.328.83v17.03a10.625,10.625,0,0,1-1.2,5.213,8.008,8.008,0,0,1-3.321,3.282,10.111,10.111,0,0,1-4.788,1.12,12.634,12.634,0,0,1-3.031-.348,8.037,8.037,0,0,1-2.336-.927,1.388,1.388,0,0,1-.811-1.12,2.26,2.26,0,0,1,.077-.386,1.053,1.053,0,0,1,.386-.579.973.973,0,0,1,.579-.193,1.027,1.027,0,0,1,.463.116,9.844,9.844,0,0,0,4.711,1.352,6.609,6.609,0,0,0,5.078-2.008,7.722,7.722,0,0,0,1.873-5.484v-1.352a7.072,7.072,0,0,1-2.781,2.607,8.132,8.132,0,0,1-3.939.985,6.373,6.373,0,0,1-5.1-2.008A8.036,8.036,0,0,1,597.051,186V174.146a1.159,1.159,0,1,1,2.317,0v11.508a6.339,6.339,0,0,0,1.216,4.209,4.725,4.725,0,0,0,3.8,1.429,6.233,6.233,0,0,0,3.032-.792,6.475,6.475,0,0,0,2.317-2.085,4.862,4.862,0,0,0,.869-2.761V174.146a1.174,1.174,0,0,1,1.989-.83Z" transform="translate(-566.35 -172.872)" fill="#018aa2" stroke="#018aa2" stroke-width="1"/>
      <path id="Path_21" data-name="Path 21" d="M708.97,188.562a.843.843,0,0,1,.5-.772.834.834,0,0,1,.618-.232,1.183,1.183,0,0,1,.85.386A7.225,7.225,0,0,0,717,190.957a5.9,5.9,0,0,0,3.225-.869,2.813,2.813,0,0,0,1.371-2.53,2.693,2.693,0,0,0-1.274-2.433,12.431,12.431,0,0,0-3.553-1.39,15.04,15.04,0,0,1-5.02-2.1,4.372,4.372,0,0,1-1.815-3.8,4.791,4.791,0,0,1,.888-2.838,5.858,5.858,0,0,1,2.414-1.95,8.246,8.246,0,0,1,3.456-.7,9.368,9.368,0,0,1,3.34.637,7.043,7.043,0,0,1,2.877,2.027.921.921,0,0,1,.347.772,1.062,1.062,0,0,1-.386.811,1.031,1.031,0,0,1-.7.232.958.958,0,0,1-.7-.309,6.1,6.1,0,0,0-2.2-1.583,6.954,6.954,0,0,0-2.742-.541,5.538,5.538,0,0,0-3.109.85,2.846,2.846,0,0,0-1.294,2.549,2.773,2.773,0,0,0,1.409,2.356,14.783,14.783,0,0,0,3.92,1.467,18.461,18.461,0,0,1,3.321,1.12,5.58,5.58,0,0,1,2.143,1.738,4.88,4.88,0,0,1,.83,2.974,4.721,4.721,0,0,1-2.008,4,8.14,8.14,0,0,1-4.982,1.487,9.054,9.054,0,0,1-7.492-3.514A1.713,1.713,0,0,1,708.97,188.562Z" transform="translate(-658.15 -172.343)" fill="#018aa2" stroke="#018aa2" stroke-width="1"/>
      <path id="Path_22" data-name="Path 22" d="M830.25,173.154a1.194,1.194,0,0,1,.328.85v17.378a1.159,1.159,0,1,1-2.317,0v-2.587a8.093,8.093,0,0,1-2.9,2.935,7.838,7.838,0,0,1-4.209,1.2,8.31,8.31,0,0,1-4.654-1.351,9.285,9.285,0,0,1-3.244-3.707,11.66,11.66,0,0,1-1.178-5.291,11.39,11.39,0,0,1,1.2-5.271,9.173,9.173,0,0,1,3.263-3.649,8.624,8.624,0,0,1,8.824-.193,7.384,7.384,0,0,1,2.9,2.935V174a1.192,1.192,0,0,1,.328-.85,1.165,1.165,0,0,1,1.661,0ZM825,189.7a7.2,7.2,0,0,0,2.51-2.935,9.489,9.489,0,0,0,.907-4.19,9.188,9.188,0,0,0-.907-4.093,7.227,7.227,0,0,0-2.51-2.916,6.4,6.4,0,0,0-3.611-1.062,6.476,6.476,0,0,0-3.611,1.043,7.107,7.107,0,0,0-2.51,2.877,9.235,9.235,0,0,0-.907,4.151,9.653,9.653,0,0,0,.888,4.19,7.053,7.053,0,0,0,2.491,2.935,6.734,6.734,0,0,0,7.26,0Z" transform="translate(-742.725 -172.343)" fill="#018aa2" stroke="#018aa2" stroke-width="1"/>
    </g>
  </g>
</svg>
